<mxfile host="app.diagrams.net" modified="2023-07-28T06:32:12.763Z" agent="Mozilla/5.0 (Windows NT 10.0; Win64; x64) AppleWebKit/537.36 (KHTML, like Gecko) Chrome/115.0.0.0 Safari/537.36 Edg/115.0.1901.183" etag="oU8w5IY8cbbw9yQFQDD9" version="21.6.5" type="github">
  <diagram name="Page-1" id="c7558073-3199-34d8-9f00-42111426c3f3">
    <mxGraphModel dx="1221" dy="1260" grid="1" gridSize="10" guides="1" tooltips="1" connect="1" arrows="1" fold="1" page="1" pageScale="1" pageWidth="1169" pageHeight="827" background="none" math="0" shadow="0">
      <root>
        <mxCell id="0" />
        <mxCell id="1" parent="0" />
        <mxCell id="mICd1pprm5RUj9HGdUu2-51" value="" style="shape=flexArrow;endArrow=classic;html=1;rounded=0;labelBackgroundColor=#000000;labelBorderColor=#000000;fillColor=#000000;fontSize=18;fontFamily=Arial;" parent="1" target="mICd1pprm5RUj9HGdUu2-69" edge="1">
          <mxGeometry width="50" height="50" relative="1" as="geometry">
            <mxPoint x="1840" y="610" as="sourcePoint" />
            <mxPoint x="1805" y="995" as="targetPoint" />
          </mxGeometry>
        </mxCell>
        <mxCell id="mICd1pprm5RUj9HGdUu2-52" value="translation efficiency model" style="edgeLabel;html=1;align=center;verticalAlign=middle;resizable=0;points=[];fontSize=24;fontFamily=Arial;labelBorderColor=none;spacing=2;fontStyle=1" parent="mICd1pprm5RUj9HGdUu2-51" vertex="1" connectable="0">
          <mxGeometry x="-0.1364" y="7" relative="1" as="geometry">
            <mxPoint x="-7" y="-37" as="offset" />
          </mxGeometry>
        </mxCell>
        <mxCell id="mICd1pprm5RUj9HGdUu2-13" value="" style="endArrow=classic;html=1;rounded=0;fontSize=18;align=center;strokeWidth=2;fontFamily=Arial;" parent="1" source="mICd1pprm5RUj9HGdUu2-16" target="mICd1pprm5RUj9HGdUu2-21" edge="1">
          <mxGeometry relative="1" as="geometry">
            <mxPoint x="1499.58" y="90" as="sourcePoint" />
            <mxPoint x="1500" y="170" as="targetPoint" />
          </mxGeometry>
        </mxCell>
        <mxCell id="mICd1pprm5RUj9HGdUu2-14" value="" style="shape=message;html=1;outlineConnect=0;fontSize=18;align=center;fontFamily=Arial;" parent="mICd1pprm5RUj9HGdUu2-13" vertex="1">
          <mxGeometry width="20" height="14" relative="1" as="geometry">
            <mxPoint x="-10" y="-7" as="offset" />
          </mxGeometry>
        </mxCell>
        <mxCell id="mICd1pprm5RUj9HGdUu2-15" value="&lt;div style=&quot;&quot;&gt;&lt;font size=&quot;1&quot; face=&quot;Arial, Verdana, sans-serif&quot; style=&quot;&quot;&gt;&lt;b style=&quot;font-size: 24px;&quot;&gt;ProteomicsDB&lt;/b&gt;&lt;/font&gt;&lt;/div&gt;" style="swimlane;fontStyle=0;childLayout=stackLayout;horizontal=1;startSize=30;horizontalStack=0;resizeParent=1;resizeParentMax=0;resizeLast=0;collapsible=1;marginBottom=0;html=1;fontSize=18;align=center;fontFamily=Arial;fillColor=#cce5ff;strokeColor=#36393d;" parent="1" vertex="1">
          <mxGeometry x="1280" y="40" width="320" height="60" as="geometry">
            <mxRectangle x="520" y="40" width="230" height="30" as="alternateBounds" />
          </mxGeometry>
        </mxCell>
        <mxCell id="mICd1pprm5RUj9HGdUu2-16" value="API download" style="text;strokeColor=none;fillColor=none;align=center;verticalAlign=middle;spacingLeft=4;spacingRight=4;overflow=hidden;points=[[0,0.5],[1,0.5]];portConstraint=eastwest;rotatable=0;html=1;fontSize=18;fontFamily=Arial;" parent="mICd1pprm5RUj9HGdUu2-15" vertex="1">
          <mxGeometry y="30" width="320" height="30" as="geometry" />
        </mxCell>
        <mxCell id="mICd1pprm5RUj9HGdUu2-17" value="" style="endArrow=classic;html=1;rounded=0;fontSize=18;align=center;strokeWidth=2;fontFamily=Arial;" parent="1" source="mICd1pprm5RUj9HGdUu2-20" target="mICd1pprm5RUj9HGdUu2-22" edge="1">
          <mxGeometry relative="1" as="geometry">
            <mxPoint x="1769.58" y="90" as="sourcePoint" />
            <mxPoint x="1770" y="170" as="targetPoint" />
          </mxGeometry>
        </mxCell>
        <mxCell id="mICd1pprm5RUj9HGdUu2-18" value="" style="shape=message;html=1;outlineConnect=0;fontSize=18;align=center;fontFamily=Arial;" parent="mICd1pprm5RUj9HGdUu2-17" vertex="1">
          <mxGeometry width="20" height="14" relative="1" as="geometry">
            <mxPoint x="-10" y="-7" as="offset" />
          </mxGeometry>
        </mxCell>
        <mxCell id="mICd1pprm5RUj9HGdUu2-19" value="&lt;div style=&quot;&quot;&gt;&lt;font size=&quot;1&quot; face=&quot;Arial, Verdana, sans-serif&quot; style=&quot;&quot;&gt;&lt;b style=&quot;font-size: 24px;&quot;&gt;Research paper&lt;/b&gt;&lt;/font&gt;&lt;/div&gt;" style="swimlane;fontStyle=0;childLayout=stackLayout;horizontal=1;startSize=30;horizontalStack=0;resizeParent=1;resizeParentMax=0;resizeLast=0;collapsible=1;marginBottom=0;html=1;fontSize=18;align=center;fontFamily=Arial;fillColor=#cce5ff;strokeColor=#36393d;" parent="1" vertex="1">
          <mxGeometry x="1680" y="40" width="320" height="60" as="geometry">
            <mxRectangle x="520" y="40" width="230" height="30" as="alternateBounds" />
          </mxGeometry>
        </mxCell>
        <mxCell id="mICd1pprm5RUj9HGdUu2-20" value="DOI: 10.1074/mcp.RA118.00058&lt;span class=&quot;es-webpage-collect main&quot; style=&quot;font-size: 18px;&quot;&gt;&lt;svg style=&quot;cursor: pointer; padding: 0.05em; border-radius: 0.5em; background: transparent; font-size: 18px;&quot; height=&quot;1em&quot; xml:space=&quot;preserve&quot; viewBox=&quot;0 0 1000 1000&quot; y=&quot;0px&quot; x=&quot;0px&quot; xmlns:xlink=&quot;http://www.w3.org/1999/xlink&quot; xmlns=&quot;http://www.w3.org/2000/svg&quot; version=&quot;1.1&quot;&gt;&lt;/svg&gt;&lt;br style=&quot;font-size: 18px;&quot;&gt;        &lt;g style=&quot;font-size: 18px;&quot;&gt;&lt;path style=&quot;fill: rgb(32, 85, 138); font-size: 18px;&quot; d=&quot;M852.3,135.6l-47.7,48.3c157.6,178.7,157.4,451,0.1,631l48.8,49.5C1035.9,672.1,1035.5,327.2,852.3,135.6z M740.9,248.6l-49.3,49.9c96.1,115.5,96.1,285.8,0.5,402.1l48.8,49.6C863.4,606.1,863.6,391.5,740.9,248.6z M195.4,183.9l-47.7-48.3c-183.2,191.6-183.6,536.5-1.2,728.8l48.8-49.5C37.9,635,37.8,362.6,195.4,183.9z M259.1,248.6C136.4,391.5,136.6,606.1,259,750.3l48.8-49.6c-95.6-116.4-95.6-286.6,0.4-402.1L259.1,248.6z M499.8,340.4c-87.3,0-158.1,71.8-158.1,160.4c0,88.5,70.8,160.4,158.1,160.4c87.3,0,158.1-71.8,158.1-160.4C657.8,412.2,587,340.4,499.8,340.4z&quot;&gt;&lt;/path&gt;&lt;/g&gt;&lt;br style=&quot;font-size: 18px;&quot;&gt;        &lt;/span&gt;" style="text;align=center;verticalAlign=middle;spacingLeft=4;spacingRight=4;overflow=hidden;points=[[0,0.5],[1,0.5]];portConstraint=eastwest;rotatable=0;html=1;fontSize=18;fontFamily=Arial;" parent="mICd1pprm5RUj9HGdUu2-19" vertex="1">
          <mxGeometry y="30" width="320" height="30" as="geometry" />
        </mxCell>
        <mxCell id="mICd1pprm5RUj9HGdUu2-21" value="&lt;div style=&quot;box-sizing: border-box; width: 100%; background: rgb(228, 228, 228); padding: 2px;&quot;&gt;&lt;font style=&quot;font-size: 24px;&quot;&gt;protein expression data&lt;/font&gt;&lt;br style=&quot;font-size: 18px;&quot;&gt;&lt;/div&gt;&lt;table style=&quot;width: 100%; font-size: 18px;&quot; cellpadding=&quot;2&quot; cellspacing=&quot;0&quot;&gt;&lt;tbody style=&quot;font-size: 18px;&quot;&gt;&lt;tr style=&quot;font-size: 18px;&quot;&gt;&lt;td style=&quot;font-size: 18px;&quot;&gt;&lt;font color=&quot;#c00000&quot; style=&quot;font-size: 18px;&quot;&gt;uniprot_gn_id&lt;/font&gt;&lt;br style=&quot;font-size: 18px;&quot;&gt;&lt;font color=&quot;#c00000&quot;&gt;tissue_name&lt;/font&gt;&lt;br style=&quot;font-size: 18px;&quot;&gt;normalized_intensity&lt;br style=&quot;font-size: 18px;&quot;&gt;&lt;/td&gt;&lt;td style=&quot;font-size: 18px;&quot;&gt;&lt;br style=&quot;font-size: 18px;&quot;&gt;&lt;/td&gt;&lt;/tr&gt;&lt;/tbody&gt;&lt;/table&gt;" style="verticalAlign=top;align=center;overflow=fill;html=1;fontSize=18;fontStyle=1;fillColor=#cce5ff;strokeColor=#36393d;glass=0;fontFamily=Arial;" parent="1" vertex="1">
          <mxGeometry x="1280" y="170" width="320" height="140" as="geometry" />
        </mxCell>
        <mxCell id="mICd1pprm5RUj9HGdUu2-22" value="&lt;div style=&quot;box-sizing: border-box; width: 100%; background: rgb(228, 228, 228); padding: 2px;&quot;&gt;&lt;font style=&quot;font-size: 24px;&quot;&gt;protein half-life data&lt;/font&gt;&lt;br style=&quot;font-size: 18px;&quot;&gt;&lt;/div&gt;&lt;table style=&quot;width: 100%; font-size: 18px;&quot; cellpadding=&quot;2&quot; cellspacing=&quot;0&quot;&gt;&lt;tbody style=&quot;font-size: 18px;&quot;&gt;&lt;tr style=&quot;font-size: 18px;&quot;&gt;&lt;td style=&quot;font-size: 18px;&quot;&gt;&lt;font color=&quot;#c00000&quot; style=&quot;font-size: 18px;&quot;&gt;uniprot_gn_id&lt;/font&gt;&lt;font color=&quot;#ff3333&quot; style=&quot;font-size: 18px;&quot;&gt;&amp;nbsp; &amp;nbsp;&lt;/font&gt;&lt;br style=&quot;font-size: 18px;&quot;&gt;gene_full_name&amp;nbsp; &lt;br style=&quot;font-size: 18px;&quot;&gt;protein_name&amp;nbsp; &amp;nbsp; &lt;br style=&quot;font-size: 18px;&quot;&gt;T1/2 [h]&lt;br style=&quot;font-size: 18px;&quot;&gt;&lt;/td&gt;&lt;td style=&quot;font-size: 18px;&quot;&gt;&lt;br style=&quot;font-size: 18px;&quot;&gt;&lt;/td&gt;&lt;/tr&gt;&lt;/tbody&gt;&lt;/table&gt;" style="verticalAlign=top;align=center;overflow=fill;html=1;fontSize=18;fontStyle=1;fillColor=#cce5ff;strokeColor=#36393d;fontFamily=Arial;" parent="1" vertex="1">
          <mxGeometry x="1680" y="170" width="320" height="140" as="geometry" />
        </mxCell>
        <mxCell id="mICd1pprm5RUj9HGdUu2-23" value="" style="edgeStyle=elbowEdgeStyle;elbow=horizontal;endArrow=classic;html=1;curved=0;rounded=0;endSize=8;startSize=8;fontSize=18;strokeWidth=2;align=center;fontFamily=Arial;" parent="1" edge="1">
          <mxGeometry width="50" height="50" relative="1" as="geometry">
            <mxPoint x="1600" y="216" as="sourcePoint" />
            <mxPoint x="1680" y="216" as="targetPoint" />
          </mxGeometry>
        </mxCell>
        <mxCell id="mICd1pprm5RUj9HGdUu2-24" value="" style="shape=cross;html=1;fontSize=18;align=center;fillColor=#000000;fontFamily=Arial;" parent="1" vertex="1">
          <mxGeometry x="1620" y="225" width="30" height="30" as="geometry" />
        </mxCell>
        <mxCell id="mICd1pprm5RUj9HGdUu2-36" value="" style="endArrow=classic;html=1;rounded=0;fontSize=18;align=center;strokeWidth=2;fontFamily=Arial;" parent="1" source="mICd1pprm5RUj9HGdUu2-39" target="mICd1pprm5RUj9HGdUu2-40" edge="1">
          <mxGeometry relative="1" as="geometry">
            <mxPoint x="1700" y="495" as="sourcePoint" />
            <mxPoint x="1700" y="545" as="targetPoint" />
          </mxGeometry>
        </mxCell>
        <mxCell id="mICd1pprm5RUj9HGdUu2-37" value="" style="shape=message;html=1;outlineConnect=0;fontSize=18;align=center;fontFamily=Arial;" parent="mICd1pprm5RUj9HGdUu2-36" vertex="1">
          <mxGeometry width="20" height="14" relative="1" as="geometry">
            <mxPoint x="-10" y="-7" as="offset" />
          </mxGeometry>
        </mxCell>
        <mxCell id="mICd1pprm5RUj9HGdUu2-38" value="&lt;b style=&quot;font-family: Arial, Verdana, sans-serif;&quot;&gt;&lt;font style=&quot;font-size: 24px;&quot;&gt;Human Protein Atlas&lt;/font&gt;&lt;/b&gt;" style="swimlane;fontStyle=0;childLayout=stackLayout;horizontal=1;startSize=30;horizontalStack=0;resizeParent=1;resizeParentMax=0;resizeLast=0;collapsible=1;marginBottom=0;html=1;fontSize=18;align=center;fontFamily=Arial;fillColor=#cce5ff;strokeColor=#36393d;" parent="1" vertex="1">
          <mxGeometry x="1280" y="415" width="319" height="60" as="geometry">
            <mxRectangle x="40" y="40" width="200" height="30" as="alternateBounds" />
          </mxGeometry>
        </mxCell>
        <mxCell id="mICd1pprm5RUj9HGdUu2-39" value="&lt;span style=&quot;font-weight: normal;&quot;&gt;RNA consensus tissue gene data&lt;/span&gt;" style="text;align=center;verticalAlign=middle;spacingLeft=4;spacingRight=4;overflow=hidden;points=[[0,0.5],[1,0.5]];portConstraint=eastwest;rotatable=0;html=1;fontStyle=1;fontSize=18;fontFamily=Arial;" parent="mICd1pprm5RUj9HGdUu2-38" vertex="1">
          <mxGeometry y="30" width="319" height="30" as="geometry" />
        </mxCell>
        <mxCell id="mICd1pprm5RUj9HGdUu2-40" value="&lt;div style=&quot;box-sizing: border-box; width: 100%; background: rgb(228, 228, 228); padding: 2px;&quot;&gt;&lt;font style=&quot;font-size: 24px;&quot;&gt;RNA expreesion data&lt;/font&gt;&lt;/div&gt;&lt;table style=&quot;width: 100%; font-size: 18px;&quot; cellpadding=&quot;2&quot; cellspacing=&quot;0&quot;&gt;&lt;tbody style=&quot;font-size: 18px;&quot;&gt;&lt;tr style=&quot;font-size: 18px;&quot;&gt;&lt;td style=&quot;font-size: 18px;&quot;&gt;&lt;font color=&quot;#c00000&quot; style=&quot;font-size: 18px;&quot;&gt;ensembl_gene_id &lt;/font&gt;&lt;br style=&quot;font-size: 18px;&quot;&gt;gene_name&lt;br style=&quot;font-size: 18px;&quot;&gt;&lt;font color=&quot;#c00000&quot;&gt;tissue_name&lt;/font&gt;&lt;br style=&quot;font-size: 18px;&quot;&gt;nTPM&lt;br style=&quot;font-size: 18px;&quot;&gt;&lt;/td&gt;&lt;td style=&quot;font-size: 18px;&quot;&gt;&lt;br style=&quot;font-size: 18px;&quot;&gt;&lt;/td&gt;&lt;/tr&gt;&lt;/tbody&gt;&lt;/table&gt;" style="verticalAlign=top;align=center;overflow=fill;html=1;fontSize=18;fontStyle=1;fillColor=#cce5ff;strokeColor=#36393d;fontFamily=Arial;" parent="1" vertex="1">
          <mxGeometry x="1680" y="380" width="320" height="140" as="geometry" />
        </mxCell>
        <mxCell id="mICd1pprm5RUj9HGdUu2-47" value="" style="group;fontSize=18;fontFamily=Arial;" parent="1" vertex="1" connectable="0">
          <mxGeometry x="1570" y="891.4300000000001" width="601" height="205" as="geometry" />
        </mxCell>
        <mxCell id="mICd1pprm5RUj9HGdUu2-48" value="" style="group;fontFamily=Arial;" parent="mICd1pprm5RUj9HGdUu2-47" vertex="1" connectable="0">
          <mxGeometry x="82.49000000000001" width="518.51" height="205" as="geometry" />
        </mxCell>
        <mxCell id="mICd1pprm5RUj9HGdUu2-49" value="" style="verticalAlign=top;align=left;spacingTop=8;spacingLeft=2;spacingRight=12;shape=cube;size=10;direction=south;fontStyle=4;html=1;fontSize=18;fontFamily=Arial;" parent="mICd1pprm5RUj9HGdUu2-48" vertex="1">
          <mxGeometry width="375.01" height="205" as="geometry" />
        </mxCell>
        <mxCell id="boScZCNdEUvpNmXZXIH7-11" value="" style="shape=image;verticalLabelPosition=bottom;labelBackgroundColor=default;verticalAlign=top;aspect=fixed;imageAspect=0;image=data:image/png,iVBORw0KGgoAAAANSUhEUgAAAqkAAADICAMAAAD8z4gjAAAAAXNSR0IArs4c6QAAAARnQU1BAACxjwv8YQUAAADDUExURQAAAAAAAL8AAAAAAL8AAAAAAL8AAAAAAL8AAAAAAL8AAAAAAL8AAAAAAL8AAAAAAL8AAAAAAL8AAAAAAL8AAAAAAL8AAAAAAL8AAAAAAL8AAAAAAL8AAAAAAL8AAAAAAL8AAAAAAMEAAAAAAMEAAAAAAMEAAAAAAMAAAAAAAMAAAAAAAMAAAAAAAMAAAAAAAMAAAAAAAMAAAAAAAMAAAAAAAMAAAAAAAMAAAAAAAMAAAAAAAMAAAAAAAMAAAAAAAMAAAHPkba4AAAA/dFJOUwAICBAQGBggICgoMDA4OEBASEhQUFhYYGBoaHBweHiAgIeHj4+Xl5+fp6evr7e3v7/Hx8/P19ff3+fn7+/39xA+GYkAAAAJcEhZcwAAFxEAABcRAcom8z8AABVKSURBVHhe7Z1tQ+vGEYVRfIlDiOs4xHEopYYQQikhvoRQ13Ed8f9/VbVzRsZard5XQsbn+XJZXUuWpaPZmdnZ1REhhBBCCCGEEEIIIYQQQgghhBBCCCGEEEIIIYQQQghpl7NQONUmIT3lWoS60RYhfWUhSl1oi5CeEmxEqXNtEtJTxiLUcKxNQnrKXIS6CbRJSE95EKU+a4uQvjIaG060RQghhBBCCCGEkC45HuofWwIWkpC+MTMD8pubnZT87HEZbXo512ZDjuf3C8OK2VTSgLERpeEplurkWbeED14GlGZ6tIg73URIVS5UQxEXsiHAWBJ4TnkFNZjM79Z6vJluIqQidyohg3TNg61BFR7kU40Zoo6KVdSkHoER6sNogOKRdbRl+BK5rLfj8exeNoWbY3yyKY9yNPMNhFQmMPqRDhlCioQaRT2PECfUG95IozEQ/qO2CKnEKOqT4TmKE7A5Cp52gp7IuspGL6Den1XUpB6TjYY4otSXo5vd6FyNqo+Y6ugICYaJtgipSOyFSrx/M030z6cirnCkzUYMcKyBNgmpiQT8N5vweSeBOhRxhVNtZjCczEpoGTNTmPcnDdHJeOEmUeeMbZfacnNh9nwstJXI2jLvTxqiHX2YHD7FttwoSBebKMy6YjSBeX/SEB2osnpnbMy1qU/4TFg052Qln2LenzRER6rOtAmOsTHXT1WvodCZlQ8x70+aghySZVJPZGP+/PySSkWNCvP+pCFqPS03UleSyM2nxkUCBf36jXyIeX/SEI2LrCH+KbbmFv6VjKggaOb9SUNg8uylzTBGtdJWBrJ+31PBOBbz/sQPiODtIB9D9UU50JPZZeFKUxM5EvP+pCGa97cM4wBbfXTZsM7M+5OGIHR60VYMXFAvC57BOjPvTxqCvL9diArn1UvNP+amMO9PGoKhTjslivJUH4YQY7XM+5OmOE2edv4+4vVzOZSnGVnkcNHqPm3FYL4Kpqs2hHl/4gUMdS61paDHXnmZ748kWLKogJDK3IqQLKX6LNNDusvTJFdyuGCoM6lUnzX6OkKlrZEXM00OEBVSYtT0GPWkfgbq4Qfr8SebR0qV1EJLphKVKF5T9fgCKHUSeQKeVhAgh4ZOlt6JeAZYRsLXmJLWuRo/dRoJ9ZmFKqQWSEdFCoqN6shfzh/I4cLn2ZkJ09j5k5rEy/CFy2lk7U5mSAXES1b4IJ5sZaBQSU3iaalJXnwO0u98BdP/pC4Y6pxPYifA8OzRoBou9bhLZv9JbTAtdRL1+/P7ReShLheX/oueJo+rcPFQMC2QkDwwLZXxOOk5yPtbQ6mE9A4U991ri7wDf/v2k/5FckBFnpfiPlKZH375zyv447evdBtxg3HTwtmlxD+ffvpTZSrQsOai01KZju+e76DT39Wq/qGbiZuRCJUz8bvnysjz87fRX1//Yf78FzaTDDAtlQFV54hQf/tC/v7G/P2j/EmyQGk/xzi75kcjzv9CqEdHn6MGA6p8UDHt6U2+pCxf/2WU+r22jr69uvqn/knc6LRUJqk65ncjVMZQFdCFJ7liVLd8b4T6+g9tkRIg78/uv2Mk2P/rS22REmzfO71ZcBnezvhWTOpnbZESBKpTg5dX+ZEy/EuUyhiqAsH4DQ5TdcUX/xOlfqNNQnrKDyLU/2mLkL7yb1Hqr9oipKd8kqz/65U2CekpP4tQX01tCiG95dNPEOrrz1cKIyvSN767uvqMrn8XKpX0jV9Vmwn+iguqCOkLyKNacKiK9BToteKgvw4klqPg3aCElEEK/F//1FZZVIPloFKJB/4hSq2a91cNloNKJR6oV56iGiwHlUo88F9RatW8/6IKfEsNac6XIlQuQ0H6DiamcAoV6TsY9X+3ZSjUkyUHgN7yupip/a+vf9dW5+iPIAeA3vKafIFx/3cb69cfQQ4AveU1+ZsI9S9tdY/+CHIA6C2vCfL+7zfWrz+CHAB6y2uCcqqftUVIX8GaqdsFqQjpJ1+JULmuH+k7shhl5UKqCB0nLQdHU0lTkPevMYFaneRysEKFNEWWTquzzo9qsBxUKmnIFyLU1++0WQHVYDmoVNIQLPJXp5BKNVgOKpU0RF5D8fofbRHSV5D35/t8SN/BtFSumk56DqalctEU0neQ9+eiKf3kZA9XZQ+m+odnMC31d22RHjG8fAkf9e89Yhqub9t4wPAuXxZS9Y7Ro0nubQba3B/kvJfe33z0SYT6+oM2SU8Y3Jr7HYb3+1cvMV/LmT95tquYlspCqp5xLnd7fb2X4yXB+Yto9c7rU4a8/wG8ieIWJV3mGl7rpt4S3OFOWz3/JX7CU/RfD7qpr5xvzA9YnmjTB5iW+vHfRBHIpQNnuq2vBOLprWfa3LJ9pWB/Xip8Os7wo0/M8xSuT7XpgUN5E0UwnS/kHke8R5AyPJs/4h3r4dPtee4ZDESRz+muczq/lwNEeFRAA44fwnCsf6e4Nue58faWTs37H8abKOZyk8OlNrvjdL5jDg2bu+x+UYXqFvOZ7B6utfmuBHPTT2UqFe8/9iZVTEs9kLy/vo6/45ecDy6W+N4Em0v97xSRnYqepqxQCsfqg5s6wankxHziba89BYV4YdqhLJYul7ZbH+/0LnaQ1w/zs/HljboAmXHdhfm/VebtFfevB27qUHzpiDwhykP35OeVsliO8kBemDaQS9utj4coPrKhc+3OA4TFEc7c+Ej+N3s8Eobsvd3U4HoboOYp9Vg+daOtRhxWecqJXNqNtrpBlbrbB46RGQ9XjnRjIEpcaCsNUhge3NS5oW7HfLbtGAoq5KWDCH24qnBTD2U5yqlct2wZtAGUukmM15zLNmf/L7d2kx1uncqOHtxUOU52NJTHSdzxC/lqR3SojSb8Jko9lNpUCUY7zvtDqVZvrpmA9B0MxFjldJcQuQc3VY5TR6mDt45fyFfqSD7TPIGNNSn+PJSKP0Qj3eb9Ral2XuxSTsRxl9Fb5tx8CN+DmyrHqaHUqTxLq5s5BkyLlOrLqGKm/6GYVB2m6jbvL9KybSAc5rRSYFLzCv3kxvvIpprjVFfqiYyeLGX0THNvBZcTnUBT6/ClDFAdjElFT9Rx3l/G6lN3U84kHeLD1ubcVmQvfGRT5UCVlWqeu80caSeY96LF+2AemhpVJFMP5k3p6Fo7zvu7UXtkj+zL5pU2XExkt7m2miAHqqzU4034FId75ZR6hOrFRhWAn1DtfyC51AjJQ/ejtkOVatlUGP28RwnjwTXcyxQ1DzR7e7hKKhUPV+0w9purq39jTuovuuUAgDx6UduhGVXL0khNR8rQ7iJu4sbHoI98VSPJl1Qquv/aPtdPotKIGqtRtclxOpIc+ZIWRv3z8/7BuHzx72jnXAfVxKODZXbcjEcpL0QRhe8khE9qi1a+qgul4umq3f0jj/r669fa7gPBzPymzc3OxT97RC7kXtuNKMj7D+dSZW3G5/OL8iKGl0h+Lxe3crNHy/C5StEw8ve2R4rOPy/4wH7qpg7vTCJg9VhPA3KkTpQKj6Vu9//r58+ff/l7xZekt8t2hG5b0TBG/jPCS+lQXt4/mCbGXda5Mcs48dnlVHrtSl0yYjs7MkLknzdKjpSP6GuoQomoJQLZsxOl4vF60tb+o7WjBsQ8wbZq2FMUhIEhZwoIBerGRmqoEz5mmtVBLJH1QkuzpUuudCc0a251/vjBeb9VvlqeiYl6ukKdaaCyYydKhavTi4paDwSIy4H0fwOVgdDoiiqa93f5oTP5r/Wl+b/gDGJdZNjIIf77eSoym2xLNaoUDI2xi91T4FHKK+cQhRv/Ja4cAKsib8WB7NiJUo9wjXxOqXo/ZOLQ/ekxDKt5/Ibmpixu1dZV6VmzgDwcMag+Jffx7R6gc3dLbwChbp1p1LVFVFk3BF+4sR6aQLY6HyUF1inyGYy7sTwfjzGDtZZRlf26Uep7DGK3hBHqRpIz6BYjAUSCWJigXy5H82HjCPiGjtgMV3wni6nqc0kGM0fWO3YP3m/h8PcuGk/Z8sLmvNwEpqaM5afASUCysk4FqOzXjVLh1fgYrnh3Rpt4ug1+1FEQPYZ3YrbEjNzK/zUkK+8PO55ICUB9jtsPoSbMAzIKuQNLNjhIyrGdyea8pxJz6IJIsOtYY3i0a0Scsl83SsUV9hIVvzuTjXaeotRn80+sTnNb83LhpYG3lErOQh/JitDMAgGoPSFhfLbKfcCNS88/cTwyFuK6L06j53qbmcKjnbdTBrJfN0rFJa5xjn0k7mnlXlxf7tQTnTUoTd9F8/62x6s9fXL6nc4MTH0tet/kvCD9bPnsBPzlZGm1UGx65FyfokfuzahjWKvfNhVK7bgyqG2kM4t81JcKMdRwMiuR/M7I+6Ojf7a+TjamYoAA3XbSLKtNLX3Pj2HbHQFYyl+2Uf824fJB3jWqbmQ/KrUu8Sijw+JkcmEsTXb6M8bte6pJddY0pbYiJrPsl2acyj5ZxgOPcIUXhUrV8YKEh4vev0a+WfbrRql6ibT1MdBQ1uqMc9GlGgr7v3QsZMCNTvkELpcgtobWIWCrS2cncHudISISyDlhvEpjs+uV4GcVKE5m91nIfnfa2KV0bvaglYrrl+qM89CMa1Fi2Z2sPMZW247phy3DB5fQ1mRmnsAJBkzddhNKzUnmwNInDKgOZxRcL/lMWUoHBVWVmpMo3j90XKpKzQVuVWHmHVfL9pV0qMc2SRolWb0/EkJ2R4thgpLZCRjgR7ewipSqrlHiUYHrWmTR5UNlaU2pPuLi3oAhl0r5jJJKhTGz8/6QWSoXqpc2eciMhECVocKxnGzWOG1R769+TsL7gOtaZNHlQ2VpTakVOsreo8Gt7UzmAketsEDamfcfQOapG62aSJpaaN22ypi7V6784kQexIyl0eJTzI6o4GckHyvsU3TB5ENlaU2p2voQwEKsKz18JSMqWGtLzkifpLtuaML6NEyeLSRnPsCNGSEOw5fMiAV3PlupOIFkiR9+VlEQpLFSAtmxm4gKl/mjFFMJiMSz75UTCXSeCiyBO++vS+mn9oUmkp9WL9FWNYxaThi0BfmpzDX84ucjU/QaPCUMPX5W6cTDLrJnN1mqD5hPdacxiziZXRZecVws2wFG3iA9ZA9NJD+t4/uW0FzyyUA0nbdGM8xcppMO1yhpmfCzyiYeEsieXSq11vPUUzRmKd39VMCdS0LfmbJi6i4nDSW6ebvSCTehTLCA6pK8rAYc4cwbihNIdjgQSyW/Pkb27EapBY/gHgKXs5Vewpn312xqaoDHmbtCNtU+OfgJJcwFjpm76B2GPTKr/lyjUeiEaj3asmc3SsWZeymI6wkwfBXd1FK48/46ZJ/yNpC7spxa3BerVE+tb/EpIz+VeiYS6IOTlSCHKhNGuYGb2qVS4WR5f5PaOwLDl3876+HO+2v2xDZ0Wgtg2QBYT8tT0BRZ4U3AQGyRVYEzkmF3XTFhAze1S6Ui5VxlOKfnaHRSkBitBXw8O++vTqZ9CfFh+zwwQpW0nhplFZ+yyDwr478FtjxD9nCNkvYTWikY88hAdu1EqdqhtRF+vBMwca2sGO2uOHKH82oo7T4VnW9CqVqyki5wsRHtp1egHo+TSnGHfQr+M2mWcaYFCboMZNdOlAoX6SMlqVoMEXFL7fuivb91p3XFSNu04RAJswwbWOwoYun+lCpMBKV/gtxsDpy9hE+NFG/NjLrs24lS0UeVGhzZE5BEr73UVg7qV9j9j8ZDVu8P+5sq54Isd5+jKJx/kQMXBFQowE4PDpjfq38CHdx1dpMu1whPWk0JyL4+lFpo0nFfq2bJ+wwCilrJwQIQjcTG5+324BuTfp6WyKb8f4xnvWgrIgrnlwjXC2JAsSnpQsbTSHtWl4inwXkFkKdIukbIfOmjHVSMWGTfTpQqV3kPX/6eiVq4NqoYEzP4zt5sIJ72RMH0AL5nOkxHXv5NwcN1uD6BVcvXyLHcqVTQdWocX0upObE8utCka4QUrz4nDxVfpif7NlKqVgYXPSG4Rh8p74/b1IrjjYuFQ08iUxYbQUc8DdPpqHeyZtaPIv2dqX7yzYWYnhct/9iC22zdP3T/O3b7DTxUSRHDqMGhjv62V7rIR/ZtolT1VQqTZAg/PlI2Fdfdy6p+Ntp1mjtpnodtJTOW1d/tbnFZnYV5CP7hbwWX0W2KbLH4tPkBlXYVbmxLg+7flfTCtycdFVwxY/5lDZpqnqDs20SpeHbCwqWGcOZtdJXvhbuk3gs6+vM0nZrE5k7JvY7fxh1YgFSQu4IU9jOKYC7Or43CTYgkdyE/oEKAloH9XOJ8HCMEWhKR9AnxWG1ux5fmfCqGLLJvfaUO337XKjehi5/0kSJ/raorTKLXQhOfwsNubANphtdGq8EMD0vGPFc1wDGmO4N+ciWyXbfKSUrkkiZwRB9I/VoJqXh+pAGLJVVA9qqh1NF4Np8/agcTs7ieX4zdb/qH6W3ntr4PePYKk+j1wMENG8tox5YyfFEhrjKTD8Y1jYEw4FrnBr/6KGSQSsnBo053LDiM/fofjWkiXipLQXaroVRLo7u4joburGgcea/AvWgrRNSa6fA5FamOMKCvPF/keF1DZP8jnd7A7RJHMT/znjh6CneSNVylnld8s/3xk1g2tzlnnYHs175S5RJVi/X6zlRC4jayqcJ0sQ4XD85EzikC8eVicVGQGxzMbp7C54ft6kNiZPNdsKirzCF9bxGApWztpXw8ZTgH0fmsFjeFKU0H8j01lHohZ+LEcRqIZYvSA8QbI+fc06yuuhHSt2za9+vk3GsotRrSFyyrW3xSj8tw7TL2yLzXMWg5YLpV+4nyLCvoFYkCqizdRBohvpZDqhKDedfUUHyKD9FhmlGWlhKPxIEIdZlOSiBJVK86NA9kFCoszdVXTkv48cQfyHA5TGpGmN4clBhUTZD2jqH0ORlLGxH/ICjQxg4thrWwqm3UP3YIXitzT6F2BVLXjnIEpDjbeXfNmTh427c+7yEBMtgfKuXfc5CKSts3OAUFRdS1GYtBWueNQ/SaMxmY3nwAZ3t/gFJTYQFeoFZloddqBNdiVje3bSeSWiA4x0DW4x73CXsIen/bT8UL1NZtymio07T2T6oYQc4uoCDtgOuejMQd76VqgdHdOqOuut+Y3MVixlCqa9D97+avB3NUVbXvhQXT+z3MAJy8FBVQkFbQGVSr2/H49Gg8nt9Ap6tq85YIaZ0zLV3dZXP3oSrZyMcgOH+rWRZe5tQp6SeD8fx6IdzNp5QpIYQQQgghhBBCCCGEEEJINkdH/weiiO4syn5REwAAAABJRU5ErkJggg==;" vertex="1" parent="mICd1pprm5RUj9HGdUu2-48">
          <mxGeometry y="49.02" width="364.21" height="106.97" as="geometry" />
        </mxCell>
        <mxCell id="mICd1pprm5RUj9HGdUu2-53" value="&lt;font style=&quot;font-size: 24px;&quot;&gt;5&#39; UTR with highly&amp;nbsp;translation efficiency&lt;/font&gt;" style="shape=ext;double=1;rounded=1;whiteSpace=wrap;html=1;fontFamily=Arial;fontStyle=1" parent="1" vertex="1">
          <mxGeometry x="1705" y="1372.43" width="270" height="120" as="geometry" />
        </mxCell>
        <mxCell id="mICd1pprm5RUj9HGdUu2-54" value="" style="shape=flexArrow;endArrow=classic;html=1;rounded=0;labelBackgroundColor=#000000;labelBorderColor=#000000;fillColor=#000000;fontSize=18;fontFamily=Arial;exitX=0.5;exitY=1;exitDx=0;exitDy=0;" parent="1" source="mICd1pprm5RUj9HGdUu2-69" target="mICd1pprm5RUj9HGdUu2-53" edge="1">
          <mxGeometry width="50" height="50" relative="1" as="geometry">
            <mxPoint x="2098" y="1709.84" as="sourcePoint" />
            <mxPoint x="2174" y="1784.84" as="targetPoint" />
          </mxGeometry>
        </mxCell>
        <mxCell id="mICd1pprm5RUj9HGdUu2-55" value="&lt;div style=&quot;text-align: left;&quot;&gt;&lt;font size=&quot;1&quot; face=&quot;Arial, Verdana, sans-serif&quot; style=&quot;&quot;&gt;&lt;b style=&quot;font-size: 24px;&quot;&gt;5&#39; UTR sequces&lt;/b&gt;&lt;/font&gt;&lt;/div&gt;" style="swimlane;fontStyle=0;childLayout=stackLayout;horizontal=1;startSize=30;horizontalStack=0;resizeParent=1;resizeParentMax=0;resizeLast=0;collapsible=1;marginBottom=0;html=1;fontSize=18;fillColor=#d5e8d4;strokeColor=#82b366;fontFamily=Arial;" parent="1" vertex="1">
          <mxGeometry x="1280" y="891.4300000000001" width="319" height="60" as="geometry">
            <mxRectangle x="520" y="40" width="230" height="30" as="alternateBounds" />
          </mxGeometry>
        </mxCell>
        <mxCell id="mICd1pprm5RUj9HGdUu2-56" value="&lt;span class=&quot;es-webpage-collect main&quot; style=&quot;font-size: 18px;&quot;&gt;UCSC table browser&lt;br style=&quot;font-size: 18px;&quot;&gt;        &lt;/span&gt;" style="text;align=center;verticalAlign=middle;spacingLeft=4;spacingRight=4;overflow=hidden;points=[[0,0.5],[1,0.5]];portConstraint=eastwest;rotatable=0;html=1;fontSize=18;fontFamily=Arial;" parent="mICd1pprm5RUj9HGdUu2-55" vertex="1">
          <mxGeometry y="30" width="319" height="30" as="geometry" />
        </mxCell>
        <mxCell id="mICd1pprm5RUj9HGdUu2-57" value="&lt;div style=&quot;box-sizing: border-box; width: 100%; background: rgb(228, 228, 228); padding: 2px;&quot;&gt;&lt;font style=&quot;font-size: 24px;&quot;&gt;5&#39;UTR-knownGene.fa&lt;/font&gt;&lt;br style=&quot;font-size: 18px;&quot;&gt;&lt;/div&gt;&lt;table align=&quot;right&quot; style=&quot;width: 100%; font-size: 18px;&quot; cellpadding=&quot;2&quot; cellspacing=&quot;0&quot;&gt;&lt;tbody style=&quot;font-size: 18px;&quot;&gt;&lt;tr style=&quot;font-size: 18px;&quot;&gt;&lt;td style=&quot;font-size: 18px;&quot;&gt;&lt;br style=&quot;font-size: 18px;&quot;&gt;No. of &lt;font color=&quot;#c00000&quot; style=&quot;font-size: 18px;&quot;&gt;transcript id&lt;/font&gt;: 170,654&lt;br style=&quot;font-size: 18px;&quot;&gt;&lt;/td&gt;&lt;td style=&quot;font-size: 18px;&quot;&gt;&lt;br style=&quot;font-size: 18px;&quot;&gt;&lt;/td&gt;&lt;/tr&gt;&lt;/tbody&gt;&lt;/table&gt;" style="verticalAlign=middle;align=center;overflow=fill;html=1;fontSize=18;fillColor=#d5e8d4;strokeColor=#82b366;fontFamily=Arial;fontStyle=1" parent="1" vertex="1">
          <mxGeometry x="1280" y="1041.43" width="319" height="110" as="geometry" />
        </mxCell>
        <mxCell id="mICd1pprm5RUj9HGdUu2-59" value="" style="endArrow=classic;html=1;rounded=0;fontSize=18;fillColor=#d5e8d4;strokeColor=#82b366;strokeWidth=2;fontFamily=Arial;" parent="1" source="mICd1pprm5RUj9HGdUu2-56" target="mICd1pprm5RUj9HGdUu2-57" edge="1">
          <mxGeometry relative="1" as="geometry">
            <mxPoint x="1418.58" y="951.4299999999998" as="sourcePoint" />
            <mxPoint x="1418.58" y="1021.4299999999998" as="targetPoint" />
          </mxGeometry>
        </mxCell>
        <mxCell id="mICd1pprm5RUj9HGdUu2-60" value="" style="shape=message;html=1;outlineConnect=0;fontSize=18;fillColor=#d5e8d4;strokeColor=#82b366;fontFamily=Arial;" parent="mICd1pprm5RUj9HGdUu2-59" vertex="1">
          <mxGeometry width="20" height="14" relative="1" as="geometry">
            <mxPoint x="-10" y="-7" as="offset" />
          </mxGeometry>
        </mxCell>
        <mxCell id="mICd1pprm5RUj9HGdUu2-69" value="&lt;div style=&quot;box-sizing: border-box; width: 100%; background: rgb(228, 228, 228); padding: 2px;&quot;&gt;&lt;font style=&quot;font-size: 24px;&quot;&gt;translation efficiency data&lt;/font&gt;&lt;/div&gt;&lt;table style=&quot;width: 100%; font-size: 18px;&quot; cellpadding=&quot;2&quot; cellspacing=&quot;0&quot;&gt;&lt;tbody style=&quot;font-size: 18px;&quot;&gt;&lt;tr style=&quot;font-size: 18px;&quot;&gt;&lt;td style=&quot;font-size: 18px;&quot;&gt;&lt;font color=&quot;#c00000&quot; style=&quot;font-size: 18px;&quot;&gt;ensembl_gene_id&lt;br&gt;&lt;/font&gt;&lt;font color=&quot;#c00000&quot;&gt;ensembl_transcript_id&lt;/font&gt;&lt;br style=&quot;font-size: 18px;&quot;&gt;uniprot_id&lt;br style=&quot;font-size: 18px;&quot;&gt;&lt;font color=&quot;#c00000&quot;&gt;translation_efficiency&lt;/font&gt;&lt;/td&gt;&lt;td style=&quot;font-size: 18px;&quot;&gt;&lt;br style=&quot;font-size: 18px;&quot;&gt;&lt;/td&gt;&lt;/tr&gt;&lt;/tbody&gt;&lt;/table&gt;" style="verticalAlign=top;align=center;overflow=fill;html=1;fontSize=18;fontStyle=1;fillColor=#cce5ff;strokeColor=#36393d;fontFamily=Arial;" parent="1" vertex="1">
          <mxGeometry x="1680" y="1161.4299999999998" width="320" height="140" as="geometry" />
        </mxCell>
        <mxCell id="mICd1pprm5RUj9HGdUu2-66" value="" style="endArrow=classic;startArrow=classic;html=1;rounded=0;edgeStyle=orthogonalEdgeStyle;strokeWidth=2;endFill=1;" parent="1" edge="1">
          <mxGeometry width="50" height="50" relative="1" as="geometry">
            <mxPoint x="2000.0000000000005" y="426.94117647058806" as="sourcePoint" />
            <mxPoint x="2180" y="640" as="targetPoint" />
            <Array as="points">
              <mxPoint x="2180" y="427" />
            </Array>
          </mxGeometry>
        </mxCell>
        <mxCell id="mICd1pprm5RUj9HGdUu2-67" value="convert ensembl_gene_id" style="edgeLabel;html=1;align=center;verticalAlign=middle;resizable=0;points=[];fontSize=24;fontFamily=Arial;" parent="mICd1pprm5RUj9HGdUu2-66" vertex="1" connectable="0">
          <mxGeometry x="-0.0207" y="3" relative="1" as="geometry">
            <mxPoint x="7" y="-343" as="offset" />
          </mxGeometry>
        </mxCell>
        <mxCell id="boScZCNdEUvpNmXZXIH7-10" value="convert emsembl_gene_id" style="edgeLabel;html=1;align=center;verticalAlign=middle;resizable=0;points=[];fontSize=24;fontFamily=Arial;" vertex="1" connectable="0" parent="mICd1pprm5RUj9HGdUu2-66">
          <mxGeometry x="0.3856" relative="1" as="geometry">
            <mxPoint y="1" as="offset" />
          </mxGeometry>
        </mxCell>
        <mxCell id="mICd1pprm5RUj9HGdUu2-73" value="" style="edgeStyle=elbowEdgeStyle;elbow=vertical;endArrow=classic;html=1;curved=0;rounded=0;endSize=8;startSize=8;fontSize=18;strokeWidth=2;fontFamily=Arial;exitX=0.5;exitY=1;exitDx=0;exitDy=0;" parent="1" source="mICd1pprm5RUj9HGdUu2-57" target="mICd1pprm5RUj9HGdUu2-69" edge="1">
          <mxGeometry width="50" height="50" relative="1" as="geometry">
            <mxPoint x="1459" y="1141.4299999999998" as="sourcePoint" />
            <mxPoint x="1729.92" y="1221.43" as="targetPoint" />
            <Array as="points">
              <mxPoint x="1540" y="1231.43" />
            </Array>
          </mxGeometry>
        </mxCell>
        <mxCell id="mICd1pprm5RUj9HGdUu2-74" value="add 5&#39; UTR sequences" style="edgeLabel;html=1;align=center;verticalAlign=middle;resizable=0;points=[];fontSize=24;fontFamily=Arial;" parent="mICd1pprm5RUj9HGdUu2-73" vertex="1" connectable="0">
          <mxGeometry x="-0.7899" y="-1" relative="1" as="geometry">
            <mxPoint as="offset" />
          </mxGeometry>
        </mxCell>
        <mxCell id="mICd1pprm5RUj9HGdUu2-78" value="" style="shape=cross;html=1;fontSize=18;align=center;fillColor=#000000;fontFamily=Arial;" parent="1" vertex="1">
          <mxGeometry x="1825" y="330" width="30" height="30" as="geometry" />
        </mxCell>
        <mxCell id="mICd1pprm5RUj9HGdUu2-81" value="" style="endArrow=classic;startArrow=classic;html=1;rounded=0;edgeStyle=orthogonalEdgeStyle;strokeWidth=2;" parent="1" edge="1">
          <mxGeometry width="50" height="50" relative="1" as="geometry">
            <mxPoint x="2000" y="217.0000000000001" as="sourcePoint" />
            <mxPoint x="2180" y="430" as="targetPoint" />
            <Array as="points">
              <mxPoint x="2180" y="217" />
            </Array>
          </mxGeometry>
        </mxCell>
        <mxCell id="mICd1pprm5RUj9HGdUu2-83" value="convert uniprot_gn_id" style="edgeLabel;html=1;align=center;verticalAlign=middle;resizable=0;points=[];fontSize=24;fontFamily=Arial;" parent="mICd1pprm5RUj9HGdUu2-81" vertex="1" connectable="0">
          <mxGeometry x="0.4932" y="-2" relative="1" as="geometry">
            <mxPoint as="offset" />
          </mxGeometry>
        </mxCell>
        <mxCell id="boScZCNdEUvpNmXZXIH7-1" value="&lt;div style=&quot;box-sizing: border-box; width: 100%; background: rgb(228, 228, 228); padding: 2px;&quot;&gt;&lt;font style=&quot;font-size: 24px;&quot;&gt;CAI data&lt;/font&gt;&lt;/div&gt;&lt;table style=&quot;width: 100%; font-size: 18px;&quot; cellpadding=&quot;2&quot; cellspacing=&quot;0&quot;&gt;&lt;tbody style=&quot;font-size: 18px;&quot;&gt;&lt;tr style=&quot;font-size: 18px;&quot;&gt;&lt;td style=&quot;font-size: 18px;&quot;&gt;&lt;font color=&quot;#c00000&quot;&gt;entrezgene_id&lt;/font&gt;&lt;br&gt;ncbi_gene_id&lt;br&gt;protein_id&lt;br&gt;CAI&lt;/td&gt;&lt;td style=&quot;font-size: 18px;&quot;&gt;&lt;br style=&quot;font-size: 18px;&quot;&gt;&lt;/td&gt;&lt;/tr&gt;&lt;/tbody&gt;&lt;/table&gt;" style="verticalAlign=top;align=center;overflow=fill;html=1;fontSize=18;fontStyle=1;fillColor=#cce5ff;strokeColor=#36393d;fontFamily=Arial;" vertex="1" parent="1">
          <mxGeometry x="1680" y="590" width="320" height="140" as="geometry" />
        </mxCell>
        <mxCell id="boScZCNdEUvpNmXZXIH7-2" value="" style="shape=cross;html=1;fontSize=18;align=center;fillColor=#000000;fontFamily=Arial;" vertex="1" parent="1">
          <mxGeometry x="1825" y="540" width="30" height="30" as="geometry" />
        </mxCell>
        <mxCell id="boScZCNdEUvpNmXZXIH7-3" value="" style="endArrow=classic;html=1;rounded=0;fontSize=18;align=center;strokeWidth=2;fontFamily=Arial;" edge="1" parent="1" source="boScZCNdEUvpNmXZXIH7-6">
          <mxGeometry relative="1" as="geometry">
            <mxPoint x="1700" y="710" as="sourcePoint" />
            <mxPoint x="1680" y="669" as="targetPoint" />
          </mxGeometry>
        </mxCell>
        <mxCell id="boScZCNdEUvpNmXZXIH7-4" value="" style="shape=message;html=1;outlineConnect=0;fontSize=18;align=center;fontFamily=Arial;" vertex="1" parent="boScZCNdEUvpNmXZXIH7-3">
          <mxGeometry width="20" height="14" relative="1" as="geometry">
            <mxPoint x="-10" y="-7" as="offset" />
          </mxGeometry>
        </mxCell>
        <mxCell id="boScZCNdEUvpNmXZXIH7-5" value="&lt;b style=&quot;font-family: Arial, Verdana, sans-serif;&quot;&gt;&lt;font style=&quot;font-size: 24px;&quot;&gt;Codon Statistics Database&lt;/font&gt;&lt;/b&gt;" style="swimlane;fontStyle=0;childLayout=stackLayout;horizontal=1;startSize=30;horizontalStack=0;resizeParent=1;resizeParentMax=0;resizeLast=0;collapsible=1;marginBottom=0;html=1;fontSize=18;align=center;fontFamily=Arial;fillColor=#cce5ff;strokeColor=#36393d;" vertex="1" parent="1">
          <mxGeometry x="1280" y="630" width="319" height="60" as="geometry">
            <mxRectangle x="40" y="40" width="200" height="30" as="alternateBounds" />
          </mxGeometry>
        </mxCell>
        <mxCell id="boScZCNdEUvpNmXZXIH7-6" value="&lt;span style=&quot;font-weight: 400;&quot;&gt;homo sapiens CAI&lt;/span&gt;" style="text;align=center;verticalAlign=middle;spacingLeft=4;spacingRight=4;overflow=hidden;points=[[0,0.5],[1,0.5]];portConstraint=eastwest;rotatable=0;html=1;fontStyle=1;fontSize=18;fontFamily=Arial;" vertex="1" parent="boScZCNdEUvpNmXZXIH7-5">
          <mxGeometry y="30" width="319" height="30" as="geometry" />
        </mxCell>
        <mxCell id="boScZCNdEUvpNmXZXIH7-7" value="" style="endArrow=classic;startArrow=classic;html=1;rounded=0;edgeStyle=orthogonalEdgeStyle;strokeWidth=2;exitX=0.996;exitY=0.334;exitDx=0;exitDy=0;exitPerimeter=0;" edge="1" parent="1" source="boScZCNdEUvpNmXZXIH7-1" target="mICd1pprm5RUj9HGdUu2-69">
          <mxGeometry width="50" height="50" relative="1" as="geometry">
            <mxPoint x="1917" y="636.0000000000001" as="sourcePoint" />
            <mxPoint x="2020" y="1210" as="targetPoint" />
            <Array as="points">
              <mxPoint x="2180" y="637" />
              <mxPoint x="2180" y="1210" />
            </Array>
          </mxGeometry>
        </mxCell>
        <mxCell id="boScZCNdEUvpNmXZXIH7-8" value="convert entrezgene_id" style="edgeLabel;html=1;align=center;verticalAlign=middle;resizable=0;points=[];fontSize=24;fontFamily=Arial;" vertex="1" connectable="0" parent="boScZCNdEUvpNmXZXIH7-7">
          <mxGeometry x="0.4932" y="-2" relative="1" as="geometry">
            <mxPoint x="2" y="-334" as="offset" />
          </mxGeometry>
        </mxCell>
        <mxCell id="boScZCNdEUvpNmXZXIH7-14" value="f ：translation efficiency&#xa;p：protein expression&#xa;i：codon adaption index&#xa;r：RNA expression&#xa;h：protein half-life" style="text;whiteSpace=wrap;fontFamily=Arial;fontSize=24;fontStyle=2" vertex="1" parent="1">
          <mxGeometry x="1280" y="1280" width="310" height="160" as="geometry" />
        </mxCell>
      </root>
    </mxGraphModel>
  </diagram>
</mxfile>
